<?xml version="1.0" encoding="UTF-8"?>
<svg id="Ebene_2" data-name="Ebene 2" xmlns="http://www.w3.org/2000/svg" viewBox="0 0 1697.6 512">
  <defs>
    <style>
      .cls-1 {
        fill: #fff;
      }
    </style>
  </defs>
  <g>
    <g>
      <path class="cls-1" d="M278.91,76.61c70.51-16.23,57.49,109.97,2.44,110.59-50.62.57-45.95-100.57-2.44-110.59Z"/>
      <path class="cls-1" d="M158.87,79.72c60.1-15.56,79.84,104.58,22.62,109.72-51.12,4.59-67.1-98.2-22.62-109.72Z"/>
      <path class="cls-1" d="M363.03,169.71c58.13-13.23,44.22,104.15-15.6,92.4-35.36-6.95-18.94-84.54,15.6-92.4h0Z"/>
      <path class="cls-1" d="M83.82,169.6c47.76-7.78,73.3,99.48,14.17,92.78-39.3-4.46-55.4-86.07-14.17-92.78Z"/>
    </g>
    <path class="cls-1" d="M236.52,208.55c-3.65-3.65-9.57-3.65-13.21,0l-110.61,110.58c-1.75,1.75-2.74,4.13-2.74,6.62v80.65c0,18.93,15.35,34.27,34.27,34.27h54.76v-84.81h61.83v84.81h54.76c18.92,0,34.27-15.34,34.27-34.27v-80.65c0-2.49-.98-4.87-2.74-6.62l-110.6-110.58h0Z"/>
  </g>
  <g>
    <path class="cls-1" d="M395.65,352.05l-2.24-.98c-2.62-1.12-4.2-2.15-4.76-3.08-.47-.84-.7-1.96-.7-3.36,0-5.14,4.71-7.71,14.15-7.71,1.21,0,3.01.07,5.39.21,2.38.14,4.18.21,5.4.21,6.82,0,12.82-.26,18-.77,5.18-.51,9.88-.77,14.08-.77,27.27,0,40.91,10.6,40.91,31.8,0,5.79-1,10.88-3.01,15.27-2.01,4.39-4.44,7.77-7.28,10.16-2.85,2.38-6.28,4.32-10.3,5.81s-7.66,2.45-10.93,2.87c-3.27.42-6.68.63-10.23.63-2.06,0-4.76-.14-8.12-.42l-.14,5.6c0,7.66.93,12.1,2.8,13.31l2.52,1.54c.19.1.51.28.98.56s.84.51,1.12.7.61.44.98.77.68.65.91.98c.23.33.42.77.56,1.33.14.56.21,1.12.21,1.68,0,2.62-.86,4.74-2.59,6.37-1.73,1.64-4.25,2.78-7.57,3.43s-6.12,1.05-8.41,1.19-5.21.21-8.76.21c-4.2,0-7.82-.14-10.86-.42-3.04-.28-6.05-.79-9.04-1.54-2.99-.75-5.28-1.91-6.86-3.5-1.59-1.59-2.38-3.6-2.38-6.03,0-2.61,1.82-4.85,5.46-6.72,1.96-1.12,3.08-1.91,3.36-2.38,1.49-2.33,2.24-12.61,2.24-30.82v-23.4c0-3.64-.3-6.44-.91-8.41s-1.94-3.41-3.99-4.34v.02ZM434.88,365.64v10.37c0,3.74.16,6.14.49,7.22s1.14,1.61,2.45,1.61c3.08,0,5.89-1.12,8.41-3.36s3.78-6.12,3.78-11.63-1.08-9.5-3.22-12.26c-2.15-2.75-4.81-4.13-7.98-4.13-1.59,0-2.64.73-3.15,2.17-.51,1.45-.77,4.79-.77,10.02h-.01Z"/>
    <path class="cls-1" d="M538.7,424.21l1.68-.7c2.43-1.03,3.64-2.33,3.64-3.92,0-2.05-1.61-3.52-4.83-4.41-3.22-.89-8.76-1.33-16.6-1.33-6.45,0-10.7.49-12.75,1.47-2.06.98-3.08,2.45-3.08,4.41,0,1.03.26,1.85.77,2.45.51.61.95.98,1.33,1.12.37.14,1.07.35,2.1.63,3.45.84,5.18,2.66,5.18,5.46,0,2.34-.72,4.25-2.17,5.74-1.45,1.5-3.55,2.52-6.3,3.08-2.76.56-5.07.91-6.94,1.05s-4.25.21-7.14.21c-14.2,0-21.29-3.22-21.29-9.67,0-3.17,2.33-5.46,7.01-6.87,2.43-.65,4.2-1.73,5.32-3.22.75-1.03,1.7-2.71,2.87-5.04,1.17-2.33,2.19-4.55,3.08-6.65s2.06-4.81,3.5-8.12,2.41-5.54,2.87-6.65l2.1-4.76c10.09-22.88,15.78-37.59,17.09-44.13.75-3.55,1.49-5.79,2.24-6.73,1.77-2.15,4.99-3.22,9.66-3.22,7.47,0,13.26,1.96,17.37,5.88,3.27,3.18,7.31,9.48,12.12,18.91s8.85,18.07,12.12,25.92l7.01,16.67c4.39,10.65,7.57,16.91,9.53,18.77.75.75,1.96,1.35,3.64,1.82,1.96.56,3.36,1.45,4.2,2.66s1.26,2.34,1.26,3.36c0,7.38-9.76,11.07-29.28,11.07-11.4,0-19.41-.66-24.03-1.96-4.62-1.31-6.94-3.74-6.94-7.29,0-2.89,1.21-4.9,3.64-6.02h.02ZM515.72,394.92h22.28c-1.4-3.83-3.36-8.13-5.89-12.89-2.52-4.76-4.48-7.15-5.88-7.15-1.78,0-5.28,6.68-10.51,20.04Z"/>
    <path class="cls-1" d="M616.87,419.44l-20.18-52.82c0-.09-.21-.65-.63-1.68s-.68-1.63-.77-1.82-.33-.72-.7-1.61c-.37-.89-.65-1.45-.84-1.68-.19-.23-.49-.68-.91-1.33s-.79-1.12-1.12-1.4-.75-.61-1.26-.98c-.51-.37-1.05-.7-1.61-.98l-.98-.42c-3.27-1.4-4.9-3.6-4.9-6.59,0-1.31.28-2.54.84-3.71.56-1.17,1.66-2.47,3.29-3.92s4.36-2.61,8.2-3.5c3.83-.89,8.55-1.33,14.15-1.33,3.36,0,6.19.1,8.48.28,2.29.19,4.74.56,7.36,1.12,2.61.56,4.6,1.54,5.95,2.94,1.35,1.4,2.03,3.17,2.03,5.32,0,2.71-.93,4.9-2.8,6.59-.84.84-1.26,1.59-1.26,2.24,0,1.03.61,3.27,1.82,6.72l6.44,17.51c1.03,3.18,2.15,4.76,3.36,4.76s2.19-1.17,2.94-3.5l2.94-7.98c.75-2.15,1.12-3.41,1.12-3.78,0-.28-.33-1.44-.98-3.5l-2.1-6.16c-1.03-3.08-2.52-5.32-4.48-6.73l-.56-.42c-.56-.37-1.05-1.19-1.47-2.45s-.63-2.26-.63-3.01c0-2.24.77-4.09,2.31-5.54s3.78-2.45,6.73-3.01c2.94-.56,5.58-.93,7.92-1.12,2.33-.19,5.23-.28,8.69-.28h1.12c14.1,0,21.15,3.08,21.15,9.25,0,1.77-1.12,3.78-3.36,6.02-1.49,1.5-2.24,2.66-2.24,3.5,0,1.5.7,3.97,2.1,7.43l5.04,12.89c2.05,5.6,3.64,8.41,4.76,8.41.37,0,.75-.19,1.12-.56s.72-.89,1.05-1.54.59-1.24.8-1.76c.2-.53.45-1.16.74-1.9s.47-1.2.53-1.38l4.68-12.07c1.62-4.11,2.44-7,2.44-8.68,0-1.58-.79-2.75-2.38-3.5l-1.4-.7c-2.24-1.12-3.36-3.03-3.36-5.74s1.42-4.99,4.27-6.86,7.64-2.8,14.36-2.8c8.13,0,13.4.72,15.83,2.17,2.43,1.44,3.64,3.75,3.64,6.92,0,2.79-.76,4.79-2.27,6.01-.38.28-.81.56-1.28.84-.47.28-1.14.61-1.99.98s-1.56.7-2.13.98c-1.14.56-1.96,1.07-2.49,1.54-.52.47-1.21,1.42-2.06,2.86-.85,1.44-1.8,3.52-2.84,6.22l-19.27,50.98c-.5,1.31-1.21,3.21-2.16,5.7-.94,2.49-1.69,4.48-2.25,5.97-.56,1.48-1.32,3.24-2.28,5.26s-1.9,3.6-2.82,4.72c-.92,1.13-2.04,2.12-3.37,2.96-1.33.85-2.78,1.27-4.33,1.27-1.87,0-3.55-.47-5.05-1.4-1.49-.94-2.76-2.24-3.78-3.92-1.03-1.68-1.89-3.38-2.59-5.11-.7-1.73-1.38-3.66-2.03-5.81,0-.19-.02-.35-.07-.49-.05-.14-.12-.3-.21-.49l-9.39-27.6c-.66-1.77-1.36-2.66-2.1-2.66-.84,0-1.59.94-2.24,2.8l-9.66,27.74c-.75,2.24-1.29,3.81-1.61,4.69-.33.89-.94,2.27-1.82,4.13-.89,1.87-1.73,3.22-2.52,4.06-.8.84-1.82,1.66-3.08,2.45s-2.64,1.19-4.13,1.19c-4.67,0-8.36-3.22-11.07-9.67-.84-1.87-1.7-4.04-2.59-6.51s-1.47-4.13-1.75-4.97l-.05-.05Z"/>
    <path class="cls-1" d="M756.41,438.36h-3.64c-5.6,0-9.71-.54-12.33-1.61-2.62-1.07-3.92-3.34-3.92-6.79,0-2.33.93-4.3,2.8-5.88.84-.75,2.15-1.45,3.92-2.1,1.4-.56,2.24-1.07,2.52-1.54,1.49-2.43,2.24-15.92,2.24-40.49v-21.58c0-1.49-.21-2.52-.63-3.08s-1.52-1.26-3.29-2.1c-1.21-.65-2.13-1.21-2.73-1.68-.61-.47-1.19-1.19-1.75-2.17s-.84-2.22-.84-3.71c0-3.83,1.31-6.26,3.92-7.29s7.42-1.54,14.43-1.54c1.21,0,3.13.02,5.75.07,2.61.05,4.58.07,5.88.07,2.71,0,6.82-.02,12.33-.07,5.51-.05,9.66-.07,12.47-.07,14.2,0,25.22,2.19,33.07,6.58,14.75,8.41,22.13,23.31,22.13,44.69,0,17.19-5.28,30.5-15.83,39.93-2.9,2.52-6,4.6-9.32,6.24-3.32,1.63-6.79,2.8-10.44,3.5-3.64.7-6.86,1.14-9.66,1.33-2.8.19-6.12.28-9.95.28-2.43,0-8.12-.19-17.09-.56-5.88-.28-12.56-.42-20.04-.42h0ZM783.31,370.27v7.28c0,17.47.14,29.28.42,35.45.19,3.46.65,5.67,1.4,6.65.75.98,2.1,1.47,4.06,1.47,14.29,0,21.44-10.23,21.44-30.68,0-23.91-7.66-35.87-22.98-35.87-1.87,0-3.08.33-3.64.98-.47.47-.7,3.03-.7,7.71v7.01h0Z"/>
    <path class="cls-1" d="M855.32,387.36c0-15.41,5.79-28.39,17.37-38.95,10.27-9.25,23.54-13.87,39.79-13.87s29.28,5.09,39.65,15.27c9.9,9.9,14.85,22.56,14.85,37.97s-5.65,29.19-16.95,39.37c-10.46,9.34-23.35,14.01-38.67,14.01-11.77,0-22.18-2.94-31.24-8.83-7.75-5.04-13.82-11.56-18.21-19.54s-6.58-16.46-6.58-25.43h0ZM893.43,372.93c0,7.94,2.01,16.77,6.03,26.48,5.23,12.52,11.44,18.77,18.63,18.77,2.9,0,5.42-1.19,7.57-3.57s3.22-6.52,3.22-12.4c0-7.85-1.68-16.06-5.04-24.66-5.42-13.64-11.82-20.45-19.2-20.45-3.08,0-5.72,1.35-7.92,4.06-2.19,2.71-3.29,6.63-3.29,11.77h0Z"/>
    <path class="cls-1" d="M979.45,352.05l-2.24-.98c-2.62-1.12-4.2-2.15-4.76-3.08-.47-.84-.7-1.96-.7-3.36,0-5.14,4.71-7.71,14.15-7.71,1.21,0,3.01.07,5.39.21,2.38.14,4.18.21,5.4.21,6.82,0,12.82-.26,18-.77,5.18-.51,9.88-.77,14.08-.77,27.27,0,40.91,10.6,40.91,31.8,0,5.79-1,10.88-3.01,15.27-2.01,4.39-4.44,7.77-7.28,10.16-2.85,2.38-6.28,4.32-10.3,5.81s-7.66,2.45-10.93,2.87c-3.27.42-6.68.63-10.23.63-2.06,0-4.76-.14-8.12-.42l-.14,5.6c0,7.66.93,12.1,2.8,13.31l2.52,1.54c.19.1.51.28.98.56s.84.51,1.12.7.61.44.98.77.68.65.91.98c.23.33.42.77.56,1.33s.21,1.12.21,1.68c0,2.62-.86,4.74-2.59,6.37-1.73,1.64-4.25,2.78-7.57,3.43s-6.12,1.05-8.41,1.19-5.21.21-8.76.21c-4.2,0-7.82-.14-10.86-.42s-6.05-.79-9.04-1.54-5.28-1.91-6.86-3.5c-1.59-1.59-2.38-3.6-2.38-6.03,0-2.61,1.82-4.85,5.46-6.72,1.96-1.12,3.08-1.91,3.36-2.38,1.49-2.33,2.24-12.61,2.24-30.82v-23.4c0-3.64-.3-6.44-.91-8.41s-1.94-3.41-3.99-4.34v.02ZM1018.68,365.64v10.37c0,3.74.16,6.14.49,7.22s1.14,1.61,2.45,1.61c3.08,0,5.89-1.12,8.41-3.36s3.78-6.12,3.78-11.63-1.08-9.5-3.22-12.26c-2.15-2.75-4.81-4.13-7.98-4.13-1.59,0-2.64.73-3.15,2.17-.51,1.45-.77,4.79-.77,10.02h-.01Z"/>
    <path class="cls-1" d="M1104.56,336.22h49.04c.47,0,2.19-.33,5.19-.98,1.68-.28,3.08-.42,4.2-.42,2.89,0,5.6,1.26,8.12,3.78s4.62,5.93,6.3,10.23c1.68,4.3,2.52,8.41,2.52,12.33,0,4.2-1.03,7.38-3.08,9.53-2.06,2.15-4.62,3.22-7.71,3.22-4.86,0-8.83-2.71-11.91-8.13l-1.82-3.22c-.09-.19-.26-.47-.49-.84-.24-.37-.37-.65-.42-.84s-.19-.44-.42-.77c-.24-.33-.4-.56-.49-.7s-.26-.35-.49-.63-.42-.49-.56-.63-.33-.3-.56-.49c-.24-.19-.45-.33-.63-.42-.19-.09-.42-.16-.7-.21-.28-.04-.56-.07-.84-.07-2.34,0-3.5,2.29-3.5,6.87v3.64l-.7,37.13v2.38c0,7.57,1.73,12.1,5.18,13.59l2.24.98c1.68.75,2.92,1.59,3.71,2.52s1.19,2.29,1.19,4.06c0,4.02-2.43,6.89-7.29,8.62s-13.12,2.59-24.8,2.59c-19.34,0-29-3.87-29-11.63,0-1.31.4-2.43,1.19-3.36.79-.93,1.44-1.52,1.96-1.75.51-.23,1.52-.68,3.01-1.33,1.77-.65,2.94-1.26,3.5-1.82,3.27-2.71,4.9-16.2,4.9-40.49v-10.65c0-7.28-1.35-10.93-4.06-10.93-.37,0-.72.05-1.05.14s-.61.21-.84.35-.51.35-.84.63-.59.49-.77.63c-.19.14-.42.42-.7.84-.28.42-.49.7-.63.84s-.35.44-.63.91-.47.75-.56.84l-1.68,2.38c-4.2,5.98-8.36,8.97-12.47,8.97-2.71,0-4.93-1-6.65-3.01-1.73-2.01-2.59-4.6-2.59-7.77,0-5.89,2.57-12.52,7.71-19.9,3.83-5.6,7.47-8.41,10.93-8.41,1.12,0,2.47.24,4.06.7,1.21.47,2.52.7,3.92.7h.01Z"/>
  </g>
</svg>